<svg width="128" height="128" viewBox="0 0 128 128" fill="none" xmlns="http://www.w3.org/2000/svg">
  <defs>
    <linearGradient id="bgGrad" x1="0%" y1="0%" x2="100%" y2="100%">
      <stop offset="0%" style="stop-color:#8B5CF6"/>
      <stop offset="100%" style="stop-color:#6D28D9"/>
    </linearGradient>
  </defs>
  <!-- Background -->
  <rect width="128" height="128" rx="24" fill="url(#bgGrad)"/>
  <!-- Controller icon -->
  <g transform="translate(24, 36)">
    <!-- Controller body -->
    <rect x="10" y="16" width="60" height="32" rx="8" fill="white"/>
    <!-- Left analog -->
    <circle cx="30" cy="32" r="8" fill="#8B5CF6"/>
    <!-- Right buttons -->
    <circle cx="56" cy="28" r="4" fill="#8B5CF6"/>
    <circle cx="64" cy="36" r="4" fill="#8B5CF6"/>
    <!-- D-pad hint -->
    <rect x="18" y="30" width="8" height="4" rx="1" fill="#8B5CF6"/>
    <!-- Grips -->
    <path d="M10 40 Q0 44 0 56 L8 56 Q8 48 16 44 Z" fill="white"/>
    <path d="M70 40 Q80 44 80 56 L72 56 Q72 48 64 44 Z" fill="white"/>
  </g>
  <!-- Search icon overlay -->
  <g transform="translate(72, 72)">
    <circle cx="20" cy="20" r="16" fill="white" stroke="#6D28D9" stroke-width="4"/>
    <circle cx="20" cy="20" r="10" fill="#6D28D9"/>
    <line x1="32" y1="32" x2="44" y2="44" stroke="#6D28D9" stroke-width="6" stroke-linecap="round"/>
  </g>
</svg>
